<svg id="Group_68" data-name="Group 68" xmlns="http://www.w3.org/2000/svg" width="45" height="45" viewBox="0 0 45 45">
  <path id="ic_alarm_on_24px" d="M47,10.485,36.65,1.86l-2.9,3.419L44.1,13.9ZM15.23,5.279,12.35,1.86,2,10.462l2.9,3.419ZM24.5,6.642A20.11,20.11,0,1,0,44.75,26.751,20.182,20.182,0,0,0,24.5,6.642Zm0,35.75A15.641,15.641,0,1,1,40.25,26.751,15.684,15.684,0,0,1,24.5,42.391Z" transform="translate(-2 -1.86)" fill="#00599d"/>
  <path id="ic_add_shopping_cart_24px" d="M7,18a2,2,0,1,0,2,2A2,2,0,0,0,7,18Zm10,0a2,2,0,1,0,2,2A2,2,0,0,0,17,18ZM7.17,14.75l.03-.12L8.1,13h7.45a1.991,1.991,0,0,0,1.75-1.03l3.86-7.01L19.42,4h-.01l-1.1,2-2.76,5H8.53l-.13-.27L6.16,6,5.21,4,4.27,2H1V4H3l3.6,7.59L5.25,14.04A1.933,1.933,0,0,0,5,15a2.006,2.006,0,0,0,2,2H19V15H7.42A.254.254,0,0,1,7.17,14.75Z" transform="translate(11.42 14)" fill="#00599d"/>
</svg>
