<svg xmlns="http://www.w3.org/2000/svg" width="45.826" height="40.185" viewBox="0 0 45.826 40.185">
  <g id="Group_182" data-name="Group 182" transform="translate(-188.174 -518.3)">
    <path id="ic_assignment_24px" d="M34.69,4.961H26.411a5.918,5.918,0,0,0-11.171,0H6.961A3.973,3.973,0,0,0,3,8.922V36.651a3.973,3.973,0,0,0,3.961,3.961H34.69a3.973,3.973,0,0,0,3.961-3.961V8.922A3.973,3.973,0,0,0,34.69,4.961Zm-13.864,0a1.981,1.981,0,1,1-1.981,1.981A1.986,1.986,0,0,1,20.826,4.961ZM24.787,32.69H10.922V28.729H24.787Zm5.942-7.922H10.922V20.806H30.729Zm0-7.922H10.922V12.884H30.729Z" transform="translate(185.174 517.872)" fill="#00599d"/>
    <g id="Group_180" data-name="Group 180">
      <g id="Group_181" data-name="Group 181">
        <g id="Group_139" data-name="Group 139" transform="translate(-36.324 -41)">
          <g id="Group_138" data-name="Group 138" transform="translate(253.325 559.3)">
            <g id="Group_130" data-name="Group 130">
              <g id="Path_8" data-name="Path 8" fill="#00599d">
                <path d="M 8.499267578125 15.99853801727295 C 4.364157676696777 15.99853801727295 0.9999975562095642 12.63437747955322 0.9999975562095642 8.499267578125 C 0.9999975562095642 4.364157676696777 4.364157676696777 0.9999975562095642 8.499267578125 0.9999975562095642 C 12.63437747955322 0.9999975562095642 15.99853801727295 4.364157676696777 15.99853801727295 8.499267578125 C 15.99853801727295 12.63437747955322 12.63437747955322 15.99853801727295 8.499267578125 15.99853801727295 Z" stroke="none"/>
                <path d="M 8.499267578125 1.999997138977051 C 4.915557861328125 1.999997138977051 1.999997138977051 4.915557861328125 1.999997138977051 8.499267578125 C 1.999997138977051 12.08297729492188 4.915557861328125 14.99853706359863 8.499267578125 14.99853706359863 C 12.08297729492188 14.99853706359863 14.99853706359863 12.08297729492188 14.99853706359863 8.499267578125 C 14.99853706359863 4.915557861328125 12.08297729492188 1.999997138977051 8.499267578125 1.999997138977051 M 8.499267578125 -1.9073486328125e-06 C 13.19328784942627 -1.9073486328125e-06 16.99853706359863 3.80524730682373 16.99853706359863 8.499267578125 C 16.99853706359863 13.19328784942627 13.19328784942627 16.99853706359863 8.499267578125 16.99853706359863 C 3.80524730682373 16.99853706359863 -1.9073486328125e-06 13.19328784942627 -1.9073486328125e-06 8.499267578125 C -1.9073486328125e-06 3.80524730682373 3.80524730682373 -1.9073486328125e-06 8.499267578125 -1.9073486328125e-06 Z" stroke="none" fill="#fff"/>
              </g>
            </g>
          </g>
        </g>
        <path id="ic_check_circle_24px" d="M7.2,11.75,3.95,8.5l.917-.917L7.2,9.911l4.933-4.934.917.923Z" transform="translate(217.001 518.436)" fill="#fff"/>
      </g>
    </g>
  </g>
</svg>
