<svg xmlns="http://www.w3.org/2000/svg" width="44.968" height="32.96" viewBox="0 0 44.968 32.96">
  <g id="Group_78" data-name="Group 78" transform="translate(-84.191 -594.714)">
    <path id="ic_person_add_24px" d="M29.84,20.48a8.24,8.24,0,1,0-8.24-8.24A8.238,8.238,0,0,0,29.84,20.48Zm0,4.12c-5.5,0-16.48,2.76-16.48,8.24v4.12H46.32V32.84C46.32,27.36,35.34,24.6,29.84,24.6Z" transform="translate(82.84 590.714)" fill="#00599d"/>
    <path id="ic_settings_applications_24px" d="M13.191,10.714A2.287,2.287,0,1,0,15.541,13,2.325,2.325,0,0,0,13.191,10.714ZM19.36,13a5.63,5.63,0,0,1-.059.777L21.04,15.1a.4.4,0,0,1,.094.514l-1.645,2.766a.422.422,0,0,1-.505.171l-2.044-.8a6.345,6.345,0,0,1-1.386.789l-.305,2.114a.423.423,0,0,1-.411.343h-3.29a.425.425,0,0,1-.411-.331l-.305-2.114a6.083,6.083,0,0,1-1.386-.789l-2.044.8a.422.422,0,0,1-.505-.171L5.248,15.629a.4.4,0,0,1,.094-.514l1.739-1.326A5.936,5.936,0,0,1,7.023,13a5.629,5.629,0,0,1,.059-.777L5.342,10.9a.4.4,0,0,1-.094-.514L6.893,7.617A.422.422,0,0,1,7.4,7.446l2.044.8a6.345,6.345,0,0,1,1.386-.789l.305-2.114A.423.423,0,0,1,11.546,5h3.29a.425.425,0,0,1,.411.331l.305,2.114a6.083,6.083,0,0,1,1.386.789l2.044-.8a.422.422,0,0,1,.505.171l1.645,2.766a.4.4,0,0,1-.094.514L19.3,12.211A5.936,5.936,0,0,1,19.36,13Z" transform="translate(79 596.174)" fill="#00599d"/>
  </g>
</svg>
