<svg xmlns="http://www.w3.org/2000/svg" width="43.15" height="41.185" viewBox="0 0 43.15 41.185">
  <g id="Group_179" data-name="Group 179" transform="translate(-188.174 -517.3)">
    <g id="Group_133" data-name="Group 133" transform="translate(188.174 518.872)">
      <path id="ic_assignment_24px" d="M34.69,4.961H26.411a5.918,5.918,0,0,0-11.171,0H6.961A3.973,3.973,0,0,0,3,8.922V36.651a3.973,3.973,0,0,0,3.961,3.961H34.69a3.973,3.973,0,0,0,3.961-3.961V8.922A3.973,3.973,0,0,0,34.69,4.961Zm-13.864,0a1.981,1.981,0,1,1-1.981,1.981A1.986,1.986,0,0,1,20.826,4.961ZM24.787,32.69H10.922V28.729H24.787Zm5.942-7.922H10.922V20.806H30.729Zm0-7.922H10.922V12.884H30.729Z" transform="translate(-3 -1)" fill="#00599d"/>
    </g>
    <g id="Group_139" data-name="Group 139" transform="translate(-39 -42)">
      <g id="Group_138" data-name="Group 138" transform="translate(253.325 559.3)">
        <g id="Group_130" data-name="Group 130">
          <g id="Path_8" data-name="Path 8" fill="#00599d">
            <path d="M 8.499267578125 15.99853801727295 C 4.364157676696777 15.99853801727295 0.9999975562095642 12.63437747955322 0.9999975562095642 8.499267578125 C 0.9999975562095642 4.364157676696777 4.364157676696777 0.9999975562095642 8.499267578125 0.9999975562095642 C 12.63437747955322 0.9999975562095642 15.99853801727295 4.364157676696777 15.99853801727295 8.499267578125 C 15.99853801727295 12.63437747955322 12.63437747955322 15.99853801727295 8.499267578125 15.99853801727295 Z" stroke="none"/>
            <path d="M 8.499267578125 1.999997138977051 C 4.915557861328125 1.999997138977051 1.999997138977051 4.915557861328125 1.999997138977051 8.499267578125 C 1.999997138977051 12.08297729492188 4.915557861328125 14.99853706359863 8.499267578125 14.99853706359863 C 12.08297729492188 14.99853706359863 14.99853706359863 12.08297729492188 14.99853706359863 8.499267578125 C 14.99853706359863 4.915557861328125 12.08297729492188 1.999997138977051 8.499267578125 1.999997138977051 M 8.499267578125 -1.9073486328125e-06 C 13.19328784942627 -1.9073486328125e-06 16.99853706359863 3.80524730682373 16.99853706359863 8.499267578125 C 16.99853706359863 13.19328784942627 13.19328784942627 16.99853706359863 8.499267578125 16.99853706359863 C 3.80524730682373 16.99853706359863 -1.9073486328125e-06 13.19328784942627 -1.9073486328125e-06 8.499267578125 C -1.9073486328125e-06 3.80524730682373 3.80524730682373 -1.9073486328125e-06 8.499267578125 -1.9073486328125e-06 Z" stroke="none" fill="#fff"/>
          </g>
        </g>
      </g>
      <path id="ic_settings_applications_24px" d="M10.247,8.611a1.445,1.445,0,1,0,1.485,1.444A1.469,1.469,0,0,0,10.247,8.611Zm3.9,1.444a3.557,3.557,0,0,1-.037.491l1.1.838a.25.25,0,0,1,.059.325l-1.039,1.748a.266.266,0,0,1-.319.108l-1.292-.506a4.009,4.009,0,0,1-.876.5l-.193,1.336a.267.267,0,0,1-.26.217H9.207a.268.268,0,0,1-.26-.209l-.193-1.336a3.844,3.844,0,0,1-.876-.5l-1.292.506a.266.266,0,0,1-.319-.108L5.227,11.716a.25.25,0,0,1,.059-.325l1.1-.838a3.751,3.751,0,0,1-.037-.5,3.557,3.557,0,0,1,.037-.491l-1.1-.838A.25.25,0,0,1,5.227,8.4L6.267,6.654a.266.266,0,0,1,.319-.108l1.292.506a4.009,4.009,0,0,1,.876-.5l.193-1.336A.267.267,0,0,1,9.207,5h2.079a.268.268,0,0,1,.26.209l.193,1.336a3.844,3.844,0,0,1,.876.5l1.292-.506a.266.266,0,0,1,.319.108l1.039,1.748a.25.25,0,0,1-.059.325l-1.1.838a3.751,3.751,0,0,1,.037.5Z" transform="translate(251.578 557.744)" fill="#fff"/>
    </g>
  </g>
</svg>
