<svg id="mechanic" xmlns="http://www.w3.org/2000/svg" width="55.654" height="55.654" viewBox="0 0 55.654 55.654">
  <path id="Path_16" data-name="Path 16" d="M55.654,27.827A27.75,27.75,0,0,1,40.7,52.523a11.32,11.32,0,0,1-1.478.7,25.975,25.975,0,0,1-5.739,1.826c-.522.087-1.13.174-1.652.261a16.982,16.982,0,0,1-2.957.261H27.044a28.377,28.377,0,0,1-11.218-2.7c-.522-.261-1.044-.522-1.478-.783A25.427,25.427,0,0,1,7.565,46.7,26.922,26.922,0,0,1,0,27.827a27.827,27.827,0,0,1,55.654,0Z" fill="none"/>
  <path id="Path_17" data-name="Path 17" d="M38.2,12.526a5.223,5.223,0,0,0-4-1.739c-1.391-.087-2.7-.087-4.087-.087s-2.783,0-4.174.087a5.223,5.223,0,0,0-4,1.739c-1.565,1.739-1.739,4.435-1.739,5.913a26.092,26.092,0,0,1,19.827,0C40.027,16.961,39.766,14.265,38.2,12.526Zm-4.957,3.131a.779.779,0,0,1-.783-.783c0-.435-.957-1.13-2.435-1.13s-2.435.7-2.435,1.13a.783.783,0,1,1-1.565,0c0-1.478,1.739-2.609,3.913-2.609s3.913,1.13,3.913,2.609A.578.578,0,0,1,33.244,15.657Z" transform="translate(-2.634 -1.395)" fill="#00599d"/>
  <path id="Path_18" data-name="Path 18" d="M39.879,21.1a2.066,2.066,0,0,1-.87,1.478c-.783.522-2,.348-3.565-.348h-.087a31.181,31.181,0,0,0-5.218-.87h0a19.224,19.224,0,0,0-5.218.87h-.087c-1.652.7-2.87.783-3.565.348A2.411,2.411,0,0,1,20.4,21.1,24.469,24.469,0,0,1,39.879,21.1Z" transform="translate(-2.66 -2.487)" fill="#00599d"/>
  <path id="Path_19" data-name="Path 19" d="M39.079,24.791c-.348,4.348-2.522,8.7-5.478,10.7a5.663,5.663,0,0,1-3.217,1.044,6.091,6.091,0,0,1-3.391-1.13l-.174-.174h-.087c-2.783-2.087-4.783-6.348-5.131-10.348a6.549,6.549,0,0,0,3.826-.7,21.9,21.9,0,0,1,4.783-.783,21.9,21.9,0,0,1,4.783.783,7.5,7.5,0,0,0,3.044.783A3.737,3.737,0,0,0,39.079,24.791Zm-3.3,13.827-1.652,1.913H26.3l-1.565-1.913a11.187,11.187,0,0,0,1.826-1.652A7.236,7.236,0,0,0,30.3,38.1a7.069,7.069,0,0,0,3.652-1.044A17.027,17.027,0,0,0,35.774,38.618Zm-1.13,19.827a16.982,16.982,0,0,1-2.957.261l-1.826-2.522a.791.791,0,0,0-.7-.348,4.037,4.037,0,0,1-3.826-1.565,3.725,3.725,0,0,1-.609-3.131l1.391,2a.8.8,0,0,0,.522.348.828.828,0,0,0,.609-.174l3.131-2.261a.722.722,0,0,0,.174-1.044l-1.3-1.826a3.733,3.733,0,0,1,2.522,1.565,3.871,3.871,0,0,1,.261,4.087.832.832,0,0,0,0,.783Z" transform="translate(-2.817 -3.051)" fill="#00599d"/>
  <path id="Path_20" data-name="Path 20" d="M41.805,57.948V53.166a.783.783,0,0,0-1.565,0v5.478A25.976,25.976,0,0,1,34.5,60.47l-2.783-4a5.506,5.506,0,0,0-.522-5.3,5.334,5.334,0,0,0-5.3-2.174c-.261,0-.435.261-.609.435a.656.656,0,0,0,.087.7l1.739,2.435L25.2,53.948l-1.739-2.522a.88.88,0,0,0-.609-.348.732.732,0,0,0-.609.348,5.406,5.406,0,0,0,.174,5.913A5.339,5.339,0,0,0,27.2,59.6l.87,1.478a28.377,28.377,0,0,1-11.218-2.7V53.166a.783.783,0,0,0-1.565,0v4.348A25.427,25.427,0,0,1,8.5,52.122,8.854,8.854,0,0,1,14.587,44.3h.087c1.565-.609,3.131-1.217,4.7-1.652a14.668,14.668,0,0,0,2.348-.957l1.913,2.348a.789.789,0,0,0,.609.261h8.522a.789.789,0,0,0,.609-.261l2-2.435a14.667,14.667,0,0,0,2.348.957A44.306,44.306,0,0,1,42.5,44.209a8.892,8.892,0,0,1,6.087,8.522A24.417,24.417,0,0,1,41.805,57.948Z" transform="translate(-1.108 -5.425)" fill="#00599d"/>
</svg>
