<svg xmlns="http://www.w3.org/2000/svg" width="44.151" height="39.612" viewBox="0 0 44.151 39.612">
  <g id="Group_178" data-name="Group 178" transform="translate(-67.174 -39.872)">
    <g id="Group_133" data-name="Group 133" transform="translate(67.174 39.872)">
      <path id="ic_assignment_24px" d="M34.69,4.961H26.411a5.918,5.918,0,0,0-11.171,0H6.961A3.973,3.973,0,0,0,3,8.922V36.651a3.973,3.973,0,0,0,3.961,3.961H34.69a3.973,3.973,0,0,0,3.961-3.961V8.922A3.973,3.973,0,0,0,34.69,4.961Zm-13.864,0a1.981,1.981,0,1,1-1.981,1.981A1.986,1.986,0,0,1,20.826,4.961ZM24.787,32.69H10.922V28.729H24.787Zm5.942-7.922H10.922V20.806H30.729Zm0-7.922H10.922V12.884H30.729Z" transform="translate(-3 -1)" fill="#00599d"/>
    </g>
    <g id="Group_135" data-name="Group 135" transform="translate(94.325 39.872)">
      <g id="Group_130" data-name="Group 130">
        <g id="Path_8" data-name="Path 8" fill="#00599d">
          <path d="M 8.5 16 C 4.364490032196045 16 1 12.63551044464111 1 8.5 C 1 4.364490032196045 4.364490032196045 1 8.5 1 C 12.63551044464111 1 16 4.364490032196045 16 8.5 C 16 12.63551044464111 12.63551044464111 16 8.5 16 Z" stroke="none"/>
          <path d="M 8.5 2 C 4.915889739990234 2 2 4.915889739990234 2 8.5 C 2 12.08411026000977 4.915889739990234 15 8.5 15 C 12.08411026000977 15 15 12.08411026000977 15 8.5 C 15 4.915889739990234 12.08411026000977 2 8.5 2 M 8.5 0 C 13.19441986083984 0 17 3.805580139160156 17 8.5 C 17 13.19441986083984 13.19441986083984 17 8.5 17 C 3.805580139160156 17 0 13.19441986083984 0 8.5 C 0 3.805580139160156 3.805580139160156 0 8.5 0 Z" stroke="none" fill="#fff"/>
        </g>
      </g>
      <g id="Group_131" data-name="Group 131" transform="translate(2.5 2)">
        <path id="Path_9" data-name="Path 9" d="M1,0A1.068,1.068,0,0,1,2,1.125v6.75A1.068,1.068,0,0,1,1,9,1.068,1.068,0,0,1,0,7.875V1.125A1.068,1.068,0,0,1,1,0Z" transform="translate(5 2)" fill="#fff"/>
        <rect id="Rectangle_16" data-name="Rectangle 16" width="2" height="9" rx="1" transform="translate(10.5 5.5) rotate(90)" fill="#fff"/>
      </g>
    </g>
  </g>
</svg>
