<svg xmlns="http://www.w3.org/2000/svg" width="33" height="50" viewBox="0 0 33 50">
  <g id="secretary" transform="translate(-11.2)">
    <path id="Path_10" data-name="Path 10" d="M37.457,7.968A11.132,11.132,0,0,0,27.621,1.8a14.511,14.511,0,0,0-4.68.859c-3.649,1.327-6.267,5.309-6.584,10.072l-.873,14.054a5.307,5.307,0,0,0-4.284,5v15.3a2.032,2.032,0,0,0,1.745,2.03A84.9,84.9,0,0,0,27.7,50.365a84.9,84.9,0,0,0,14.755-1.249,2.032,2.032,0,0,0,1.745-2.03v-15.3a5.457,5.457,0,0,0-4.2-5C39.837,16.791,38.964,10.467,37.457,7.968Z" transform="translate(0 -0.365)" fill="#00599d"/>
    <path id="Path_11" data-name="Path 11" d="M37.457,6.168A11.239,11.239,0,0,0,27.621,0a12.822,12.822,0,0,0-4.68.937c-3.649,1.327-6.267,5.309-6.584,10.072l-.873,14.054a5.307,5.307,0,0,0-4.284,5V45.286a2.032,2.032,0,0,0,1.745,2.03A85.562,85.562,0,0,0,27.7,48.565a84.9,84.9,0,0,0,14.755-1.249,2.032,2.032,0,0,0,1.745-2.03v-15.3a5.457,5.457,0,0,0-4.2-5C39.837,14.991,38.964,8.667,37.457,6.168Z" transform="translate(0)" fill="#fff"/>
    <path id="Path_12" data-name="Path 12" d="M33.782,31.337,32.826,25.2a8.782,8.782,0,0,1-1.435.159,8.782,8.782,0,0,1-1.435-.159L29,31.417A9.576,9.576,0,0,0,33.782,31.337Z" transform="translate(-3.691 -5.57)" fill="#00599d"/>
    <path id="Path_13" data-name="Path 13" d="M23.75,25.479h.316c.079,0,.079.08.158.08H24.3a5.1,5.1,0,0,0,1.265.717l.949-6.137a7.556,7.556,0,0,1-4.271-6.854,8.407,8.407,0,0,1,.4-2.391.682.682,0,0,1,.87-.478,6.591,6.591,0,0,0,7.513-3.587V5.872a.712.712,0,1,1,1.424,0V6.59A7.6,7.6,0,0,1,36.4,13.285a7.385,7.385,0,0,1-4.271,6.854l.949,6.057a6,6,0,0,0,1.265-.717h.079c.079,0,.079-.08.158-.08H34.9l4.587.877c-.158-9.724-.949-16.259-2.214-18.411v-.08A9.05,9.05,0,0,0,25.411,3.4c-2.847,1.116-4.9,4.384-5.141,8.369L19.4,26.276l4.35-.8Z" transform="translate(-1.664 -0.532)" fill="#00599d"/>
    <path id="Path_14" data-name="Path 14" d="M25.059,13.285A6.976,6.976,0,0,0,24.9,14.56a5.878,5.878,0,0,0,5.659,6.057,5.878,5.878,0,0,0,5.659-6.057A6.06,6.06,0,0,0,33.348,9.3,8.236,8.236,0,0,1,25.059,13.285ZM34.3,29.146c-.08.08-.239.08-.4.159h-.08a12.1,12.1,0,0,1-3.587.558,11.362,11.362,0,0,1-3.108-.478h0c-.08,0-.239-.08-.319-.08L30.479,36Z" transform="translate(-2.859 -1.888)" fill="#00599d"/>
    <path id="Path_15" data-name="Path 15" d="M39.722,34.236,34.094,33.2l-5.232,9.564a.7.7,0,0,1-1.268,0L22.362,33.2l-5.628,1.036A3.373,3.373,0,0,0,13.8,37.345V52.966a83.54,83.54,0,0,0,28.855,0V37.345A3.443,3.443,0,0,0,39.722,34.236ZM39.167,46.51H33.7a.4.4,0,0,1,0-.8h5.47a.375.375,0,0,1,.4.4C39.485,46.351,39.326,46.51,39.167,46.51Zm0-2.471H33.7a.4.4,0,0,1,0-.8h5.47a.375.375,0,0,1,.4.4A.426.426,0,0,1,39.167,44.039Z" transform="translate(-0.528 -7.748)" fill="#00599d"/>
  </g>
</svg>
